<?xml version="1.0" encoding="UTF-8" standalone="no" ?>
<!DOCTYPE svg PUBLIC "-//W3C//DTD SVG 1.1//EN" "http://www.w3.org/Graphics/SVG/1.1/DTD/svg11.dtd">
<svg xmlns="http://www.w3.org/2000/svg" xmlns:xlink="http://www.w3.org/1999/xlink" version="1.1" width="1280" height="1024" viewBox="0 0 1280 1024" xml:space="preserve">
<desc>Created with Fabric.js 5.3.0</desc>
<defs>
</defs>
<g transform="matrix(1 0 0 1 640 512)" id="background-logo"  >
<rect style="stroke: none; stroke-width: 0; stroke-dasharray: none; stroke-linecap: butt; stroke-dashoffset: 0; stroke-linejoin: miter; stroke-miterlimit: 4; fill: rgb(255,255,255); fill-opacity: 0; fill-rule: nonzero; opacity: 1;"  paint-order="stroke"  x="-640" y="-512" rx="0" ry="0" width="1280" height="1024" />
</g>
<g transform="matrix(1.9211538461538462 0 0 1.9211538461538462 640 387.87719022850865)" id="logo-logo"  >
<g style=""  paint-order="stroke"   >
		<g transform="matrix(1.4898623054616074 0 0 1.489862305461607 1.4919513138023035 0)"  >
<path style="stroke: none; stroke-width: 1; stroke-dasharray: none; stroke-linecap: butt; stroke-dashoffset: 0; stroke-linejoin: miter; stroke-miterlimit: 4; fill: rgb(255,255,255); fill-rule: nonzero; opacity: 1;"  paint-order="stroke"  transform=" translate(-251.00149534999994, -250.00000184481894)" d="M 262.3851929 196.0017548 L 275.48510749999997 192.7705231 L 274.7789613 189.9070435 L 264.6709596 192.40028389999998 L 264.6709596 190.70281989999998 C 263.65591440000003 190.70281989999998 262.6654054 190.49389659999997 261.7535402 190.1031037 C 260.84167499999995 189.7098542 260.0084535 189.1347199 259.31042499999995 188.39982609999998 L 253.21006789999996 181.97747809999998 L 251.45870989999995 181.97747809999998 L 251.45870989999995 177.7976685 L 248.54151929999995 177.7976685 L 248.54151929999995 181.97747809999998 L 246.79017649999994 181.97747809999998 C 246.79017649999994 181.97747809999998 245.80212409999996 183.01715099999998 245.75787359999995 183.06629949999999 C 241.29934699999995 187.8541718 246.03070069999995 190.70281989999998 246.03070069999995 190.70281989999998 L 235.32925419999995 190.70281989999998 L 235.32925419999995 192.40028389999998 L 211.18840029999996 186.4458924 L 210.48200989999995 189.3093873 L 237.61505129999995 196.0017854 L 237.61505129999995 200.1608583 L 203.75042729999996 200.1608583 L 203.75042729999996 203.1102602 L 237.61505129999995 203.1102602 L 237.61505129999995 207.2693331 L 226.24940489999994 210.07263210000002 L 226.95579529999995 212.93611170000003 L 235.32925419999995 210.87083460000002 L 235.32925419999995 213.34692410000002 L 251.45762639999995 213.34692410000002 C 251.45762639999995 213.34692410000002 239.12170419999995 214.42837550000002 238.57360849999995 222.65725740000002 C 238.56869519999995 222.73097260000003 238.56376659999995 222.8046878 238.55886849999996 222.87352020000003 L 235.77519239999995 264.7551578 C 234.96258559999995 276.9811405 224.80871599999995 286.4825138 212.55575579999996 286.4825138 L 212.55574049999996 286.4825138 C 212.33763139999996 284.84314 212.22306839999996 283.1715092 212.22306839999996 281.4734196 L 212.22306839999996 227.7818302 L 235.04414379999997 227.7818302 L 235.24076859999997 224.8324131 L 209.27365129999995 224.8324131 L 209.27365129999995 281.08157389999997 C 209.27365129999995 303.59429969999997 227.37390149999996 322.14044229999996 249.88655109999996 322.2021794 C 272.39581319999996 322.2639165 290.72656269999993 303.96859789999996 290.72656269999993 281.4734196 L 290.72656269999993 224.8324131 L 264.759491 224.8324131 L 264.9560852 227.7818302 L 287.7771606 227.7818302 L 287.7771606 281.4734196 C 287.7771606 283.1715092 287.6625976 284.8431401 287.4444885 286.4825138 L 287.4443359 286.4825138 C 275.1914367 286.4825138 265.0375976 276.9812015 264.224945 264.7552799 L 261.42663569999996 222.6572574 C 261.20053099999996 219.24328649999998 262.37045279999995 215.8809665 264.67095939999996 213.3469241 L 264.67095939999996 210.8708346 L 288.31152339999994 216.7018588 L 289.0176695999999 213.8383639 L 262.3851927999999 207.26933309999998 L 262.3851927999999 203.11026 L 298.25256339999993 203.11026 L 298.25256339999993 200.1608581 L 262.3851927999999 200.1608581 L 262.3851927999999 196.0017548 z M 279.263092 300.3102722 L 276.3136901 300.3102722 C 276.3136901 300.31051629999996 276.31372059999995 300.31076049999996 276.31372059999995 300.3110046 L 276.3136901 300.3110046 C 276.3136901 302.5624389 274.48205559999997 304.3940429 272.23086539999997 304.3940429 C 269.9794616 304.3940429 268.1478271 302.56243889999996 268.1478271 300.3110046 L 265.1984252 300.3110046 C 265.1984252 302.5624389 263.36679069999997 304.3940429 261.1153869 304.3940429 C 258.8641967 304.3940429 257.0325622 302.56243889999996 257.0325622 300.3110046 L 254.08316029999997 300.3110046 C 254.08316029999997 302.5624389 252.25154099999997 304.3940429 250.00012199999998 304.3940429 C 247.74880969999998 304.3940429 245.91719049999998 302.56243889999996 245.91719049999998 300.3110046 L 242.96778859999998 300.3110046 C 242.96778859999998 302.5624389 241.13616929999998 304.3940429 238.88473499999998 304.3940429 C 236.63343799999998 304.3940429 234.80181869999998 302.56243889999996 234.80181869999998 300.3110046 L 231.85240159999998 300.3110046 C 231.85240159999998 302.5624389 230.02078229999998 304.3940429 227.76948529999999 304.3940429 C 225.518173 304.3940429 223.68655379999998 302.56243889999996 223.68655379999998 300.3110046 L 223.68640119999998 300.3110046 C 223.68640119999998 300.3107605 223.68643169999999 300.3105163 223.68643169999999 300.3102722 L 220.73703 300.3102722 C 220.73703 301.5376282 220.18853760000002 302.6746826 219.2801513 303.43640139999997 C 218.2190398 301.95623779999994 217.2621612 300.39675909999994 216.4202117 298.76837159999997 C 216.498352 298.7709351 216.5761565 298.77651979999996 216.6545867 298.77651979999996 C 218.9126433 298.77651979999996 220.92410270000002 297.70547489999996 222.211563 296.0460816 C 223.49908440000002 297.7060853 225.5109404 298.77749639999996 227.7694854 298.77749639999996 C 230.02783200000002 298.77749639999996 232.039566 297.70626839999994 233.32710260000002 296.04644779999995 C 234.61460870000002 297.70626839999994 236.62631220000003 298.77749639999996 238.884735 298.77749639999996 C 241.1431884 298.77749639999996 243.1549376 297.70623789999996 244.4424895 296.04644779999995 C 245.7300261 297.70623779999994 247.7417449 298.77749639999996 250.00012189999998 298.77749639999996 C 252.25860579999997 298.77749639999996 254.2703245 297.70626839999994 255.5578612 296.04650889999994 C 256.84536729999996 297.70626839999994 258.8570555 298.77749639999996 261.1153868 298.77749639999996 C 263.3738707 298.77749639999996 265.38562 297.70626839999994 266.6731261 296.0464783 C 267.96063219999996 297.7062683 269.9723815 298.7774964 272.23086539999997 298.7774964 C 274.4893798 298.7774964 276.5011596 297.7061158 277.78866569999997 296.0461426 C 279.07614129999996 297.7055054 281.0876464 298.7765198 283.3456725 298.7765198 C 283.42407219999996 298.7765198 283.50186149999996 298.77093510000003 283.5800475 298.7683716 C 282.738098 300.3967591 281.78118889999996 301.9562378 280.72006209999995 303.4364014 C 279.8116455 302.6746826 279.263092 301.5376282 279.263092 300.3102722 z M 231.8475647 314.5967407 C 232.40618899999998 314.195404 232.90376279999998 313.7155456 233.32336429999998 313.173645 C 234.61071779999997 314.8361511 236.62414549999997 315.9094238 238.88473509999997 315.9094238 C 241.14318849999998 315.9094238 243.15493769999998 314.8381653 244.44248959999996 313.1783752 C 245.73002619999997 314.8381652 247.74174499999995 315.9094238 250.00012199999995 315.9094238 C 252.25860589999994 315.9094238 254.27032459999995 314.8381958 255.55786129999996 313.1784363 C 256.84536739999993 314.8381958 258.85705559999997 315.9094238 261.1153869 315.9094238 C 263.3760375 315.9094238 265.3895263 314.8361511 266.6768798 313.173645 C 267.096466 313.71554560000004 267.5940551 314.195404 268.1526794 314.5967407 C 262.7622985 317.56295769999997 256.57516480000004 319.2529297 250.000122 319.2529297 C 243.4250946 319.2529297 237.237915 317.5629578 231.8475647 314.5967407 z M 271.1004333 312.7965393 C 269.38504020000005 312.3020935 268.14880370000003 310.7085571 268.14880370000003 308.878418 L 268.14779660000005 308.878418 C 268.14779660000005 308.87792970000004 268.14782710000003 308.8774414 268.14782710000003 308.8769837 L 265.19842520000003 308.8769837 C 265.19842520000003 311.1283875 263.3667907 312.960022 261.11538690000003 312.960022 C 258.86419670000004 312.960022 257.03256220000003 311.1283875 257.03256220000003 308.8769837 L 254.08316030000003 308.8769837 C 254.08316030000003 311.1283875 252.25154100000003 312.960022 250.00012200000003 312.960022 C 247.74880970000004 312.960022 245.91719050000003 311.1283875 245.91719050000003 308.8769837 L 242.96778860000003 308.8769837 C 242.96778860000003 311.1283875 241.13616930000003 312.960022 238.88473500000003 312.960022 C 236.63343800000004 312.960022 234.80181870000004 311.1283875 234.80181870000004 308.8769837 L 231.85240160000004 308.8769837 C 231.85240160000004 308.8774415 231.85243210000004 308.8779297 231.85243210000004 308.878418 L 231.85144030000004 308.878418 C 231.85144030000004 310.7085266 230.61511220000003 312.30206300000003 228.89979540000004 312.7965088 C 225.98068220000005 310.8235169 223.35269150000005 308.4519348 221.09022510000005 305.76309210000005 C 221.50894150000005 305.42230230000007 221.88676440000006 305.0379639000001 222.21406540000007 304.6152344000001 C 223.50169360000007 306.2734070000001 225.51240520000007 307.3434448000001 227.76948530000007 307.3434448000001 C 230.02783190000008 307.3434448000001 232.03956590000007 306.2722168000001 233.32710250000008 304.6123962000001 C 234.61460860000008 306.2722168000001 236.6263121000001 307.3434448000001 238.88473490000007 307.3434448000001 C 241.14318830000008 307.3434448000001 243.15493750000007 306.2721863000001 244.44248940000006 304.6123962000001 C 245.73002600000007 306.2721862000001 247.74174480000005 307.3434448000001 250.00012180000004 307.3434448000001 C 252.25860570000003 307.3434448000001 254.27032440000005 306.2722168000001 255.55786110000005 304.6124573000001 C 256.84536720000006 306.2722168000001 258.85705540000004 307.3434448000001 261.11538670000004 307.3434448000001 C 263.37387060000003 307.3434448000001 265.38561990000005 306.2722168000001 266.673126 304.6124267000001 C 267.9606321 306.2722167000001 269.9723814 307.34344480000016 272.2308653 307.34344480000016 C 274.4879149 307.34344480000016 276.4985655 306.27343750000017 277.78616320000003 304.61529540000015 C 278.1134642 305.03802490000015 278.49130240000005 305.42233280000016 278.91003400000005 305.76309200000014 C 276.647522 308.4519348 274.0195618 310.8235474 271.1004333 312.7965393 z M 285.1054382 295.4280396 C 284.55990599999996 295.6886902 283.9601745 295.827118 283.3456726 295.827118 C 281.0944824 295.827118 279.26309200000003 293.9957276 279.26309200000003 291.7447816 L 276.31369010000003 291.7447816 C 276.31369010000003 291.7448426 276.31369010000003 291.7449647 276.31369010000003 291.7450257 C 276.31369010000003 293.99646 274.4820556 295.828064 272.2308654 295.828064 C 269.97946160000004 295.828064 268.14782710000003 293.99645999999996 268.14782710000003 291.7450257 L 265.19842520000003 291.7450257 C 265.19842520000003 293.99646 263.3667907 295.828064 261.11538690000003 295.828064 C 258.86419670000004 295.828064 257.03256220000003 293.99645999999996 257.03256220000003 291.7450257 L 254.08316030000003 291.7450257 C 254.08316030000003 293.99646 252.25154100000003 295.828064 250.00012200000003 295.828064 C 247.74880970000004 295.828064 245.91719050000003 293.99645999999996 245.91719050000003 291.7450257 L 242.96778860000003 291.7450257 C 242.96778860000003 293.99646 241.13616930000003 295.828064 238.88473500000003 295.828064 C 236.63343800000004 295.828064 234.80181870000004 293.99645999999996 234.80181870000004 291.7450257 L 231.85240160000004 291.7450257 C 231.85240160000004 293.99646 230.02078230000004 295.828064 227.76948530000004 295.828064 C 225.51817300000005 295.828064 223.68655380000004 293.99645999999996 223.68655380000004 291.7450257 L 223.68643170000004 291.7450257 C 223.68643170000004 291.74496469999997 223.68643170000004 291.74484259999997 223.68643170000004 291.7447816 L 220.73703 291.7447816 C 220.73703 293.9957276 218.9056396 295.827118 216.6545868 295.827118 C 216.0401154 295.827118 215.440445 295.68869029999996 214.8948059 295.42810069999996 C 214.1265411 293.50195319999995 213.51387019999999 291.49786389999997 213.06916809999998 289.4319154 L 286.93106079999995 289.4319154 C 286.4863586 291.4978638 285.8737183 293.5019531 285.1054382 295.4280396 z M 259.4677429 194.8000488 L 259.4677429 209.2472534 L 251.4587097 209.2472534 L 251.4587097 194.8000488 L 259.4677429 194.8000488 z M 240.5325012 194.8000488 L 248.54151910000002 194.8000488 L 248.54151910000002 209.2472534 L 240.5325012 209.2472534 L 240.5325012 194.8000488 z M 246.5419312 232.5388184 C 246.5419312 230.6266175 248.0903779 229.0781861 250.0001221 229.0781861 C 250.9537659 229.0781861 251.818924 229.4640656 252.4456787 230.093277 C 253.0699615 230.7175904 253.458313 231.5827484 253.458313 232.5388184 L 253.458313 239.3200379 L 246.5419312 239.3200379 L 246.5419312 232.5388184 z M 246.5419312 259.190033 C 246.5419312 257.2753601 248.0903779 255.72694400000003 250.0001221 255.72694400000003 C 250.9537659 255.72694400000003 251.818924 256.11282350000005 252.4456787 256.7420349 C 253.0699615 257.366333 253.458313 258.2339172 253.458313 259.1900329 L 253.458313 265.9687805 L 246.5419312 265.9687805 L 246.5419312 259.190033 z" stroke-linecap="round" />
</g>
		<g transform="matrix(1.4465268295688765 -0.35672100949374475 0.3567210094937451 1.4465268295688767 73.17101388574298 -96.20935346503211)"  >
<rect style="stroke: none; stroke-width: 0; stroke-dasharray: none; stroke-linecap: butt; stroke-dashoffset: 0; stroke-linejoin: miter; stroke-miterlimit: 4; fill: rgb(255,255,255); fill-rule: nonzero; opacity: 1;"  paint-order="stroke"  x="-15.71965885" y="-1.47463415" rx="0" ry="0" width="31.4393177" height="2.9492683" />
</g>
		<g transform="matrix(0.35678358371057384 -1.4465113350008985 1.4465113350008987 0.35678358371057384 84.88443544574272 -45.014265643954104)"  >
<rect style="stroke: none; stroke-width: 0; stroke-dasharray: none; stroke-linecap: butt; stroke-dashoffset: 0; stroke-linejoin: miter; stroke-miterlimit: 4; fill: rgb(255,255,255); fill-rule: nonzero; opacity: 1;"  paint-order="stroke"  x="-1.47463415" y="-7.62195015" rx="0" ry="0" width="2.9492683" height="15.2439003" />
</g>
		<g transform="matrix(0.35678432864172666 -1.4465111860146684 1.4465111860146704 0.35678432864172704 -84.23541970976595 -98.93826961076564)"  >
<rect style="stroke: none; stroke-width: 0; stroke-dasharray: none; stroke-linecap: butt; stroke-dashoffset: 0; stroke-linejoin: miter; stroke-miterlimit: 4; fill: rgb(255,255,255); fill-rule: nonzero; opacity: 1;"  paint-order="stroke"  x="-1.4746629" y="-8.0707121" rx="0" ry="0" width="2.9493258" height="16.1414242" />
</g>
		<g transform="matrix(1.4465125268907435 -0.3567786671649658 0.3567786671649658 1.4465125268907433 -71.13621131246418 -48.40526025931439)"  >
<rect style="stroke: none; stroke-width: 0; stroke-dasharray: none; stroke-linecap: butt; stroke-dashoffset: 0; stroke-linejoin: miter; stroke-miterlimit: 4; fill: rgb(255,255,255); fill-rule: nonzero; opacity: 1;"  paint-order="stroke"  x="-17.12644385" y="-1.4746629" rx="0" ry="0" width="34.2528877" height="2.9493258" />
</g>
</g>
</g>
<g transform="matrix(1.9211538461538462 0 0 1.9211538461538462 640.0458525390626 700.4139168196509)" id="text-logo"  >
<g style=""  paint-order="stroke"   >
		<g transform="matrix(1 0 0 1 0 0)" id="text-logo-path-0"  >
<path style="stroke: none; stroke-width: 0; stroke-dasharray: none; stroke-linecap: butt; stroke-dashoffset: 0; stroke-linejoin: miter; stroke-miterlimit: 4; fill: rgb(255,255,255); fill-rule: nonzero; opacity: 1;"  paint-order="stroke"  transform=" translate(-200.93999999999997, 17.419999999999998)" d="M 10.66 -30.29 L 10.66 -5 L 21.25 -5 L 21.25 -7.49 L 26.25 -7.49 L 26.25 0 L 2.54 0 L 2.54 -5 L 5.66 -5 L 5.66 -30.29 L 2.54 -30.29 L 2.54 -34.86 L 13.76 -34.86 L 13.76 -30.29 L 10.66 -30.29 Z M 39.13 -5 L 42.26 -5 L 42.26 -30.29 L 39.13 -30.29 L 39.13 -34.86 L 50.35 -34.86 L 50.35 -30.29 L 47.26 -30.29 L 47.26 -5 L 50.35 -5 L 50.35 0 L 39.13 0 L 39.13 -5 Z M 82.02 -29.81 L 82.02 -29.81 Q 78.85 -29.81 76.06 -28.79 Q 73.26 -27.78 71.28 -26.03 Q 69.3 -24.27 68.16 -21.82 Q 67.02 -19.37 67.02 -16.58 L 67.02 -16.58 Q 67.02 -14.04 67.99 -11.82 Q 68.97 -9.6 70.68 -8 Q 72.4 -6.4 74.85 -5.47 Q 77.3 -4.54 80.17 -4.54 L 80.17 -4.54 Q 81.72 -4.54 84.56 -5.33 L 84.56 -5.33 L 84.56 -14.55 L 76.31 -14.55 L 76.31 -19.55 L 89.56 -19.55 L 89.56 -2.01 L 89.26 -1.83 Q 85.4 0.51 80.27 0.51 L 80.27 0.51 Q 76.16 0.51 72.7 -0.8 Q 69.25 -2.11 66.91 -4.39 Q 64.58 -6.68 63.27 -9.84 Q 61.96 -13 61.96 -16.68 L 61.96 -16.68 Q 61.96 -20.44 63.46 -23.79 Q 64.96 -27.14 67.56 -29.58 Q 70.16 -32.02 73.9 -33.44 Q 77.63 -34.86 81.92 -34.86 L 81.92 -34.86 Q 83.29 -34.86 85.2 -34.49 Q 87.1 -34.13 87.89 -33.9 Q 88.67 -33.67 89.13 -33.52 L 89.13 -33.52 L 89.56 -33.36 L 89.56 -26.38 L 84.56 -26.38 L 84.56 -29.61 Q 83.34 -29.81 82.02 -29.81 Z M 126.74 -34.86 L 137.99 -34.86 L 137.99 -30.24 L 134.86 -30.24 L 134.86 -5 L 137.99 -5 L 137.99 0 L 126.74 0 L 126.74 -5 L 129.86 -5 L 129.86 -14.55 L 110.57 -14.55 L 110.57 -5 L 113.66 -5 L 113.66 0 L 102.44 0 L 102.44 -5 L 105.56 -5 L 105.56 -30.24 L 102.44 -30.24 L 102.44 -34.86 L 113.66 -34.86 L 113.66 -30.24 L 110.57 -30.24 L 110.57 -19.55 L 129.86 -19.55 L 129.86 -30.24 L 126.74 -30.24 L 126.74 -34.86 Z M 155.87 -30.14 L 155.87 -27.65 L 150.87 -27.65 L 150.87 -34.86 L 178.21 -34.86 L 178.21 -27.65 L 173.21 -27.65 L 173.21 -30.14 L 167.45 -30.14 L 167.83 -5 L 170.95 -5 L 170.95 0 L 159.4 0 L 159.4 -5 L 162.52 -5 L 161.63 -30.14 L 155.87 -30.14 Z M 215.39 -34.86 L 226.64 -34.86 L 226.64 -30.24 L 223.51 -30.24 L 223.51 -5 L 226.64 -5 L 226.64 0 L 215.39 0 L 215.39 -5 L 218.51 -5 L 218.51 -14.55 L 199.21 -14.55 L 199.21 -5 L 202.31 -5 L 202.31 0 L 191.09 0 L 191.09 -5 L 194.21 -5 L 194.21 -30.24 L 191.09 -30.24 L 191.09 -34.86 L 202.31 -34.86 L 202.31 -30.24 L 199.21 -30.24 L 199.21 -19.55 L 218.51 -19.55 L 218.51 -30.24 L 215.39 -30.24 L 215.39 -34.86 Z M 250.79 -5.56 L 250.79 -5.56 Q 253.2 -4.52 256.04 -4.52 Q 258.89 -4.52 261.31 -5.55 Q 263.74 -6.58 265.38 -8.35 Q 267.01 -10.13 267.94 -12.53 Q 268.87 -14.93 268.87 -17.62 L 268.87 -17.62 Q 268.87 -20.26 267.94 -22.61 Q 267.01 -24.96 265.36 -26.67 Q 263.71 -28.39 261.3 -29.38 Q 258.89 -30.37 256.04 -30.37 L 256.04 -30.37 Q 253.2 -30.37 250.79 -29.38 Q 248.38 -28.39 246.74 -26.67 Q 245.1 -24.96 244.17 -22.62 Q 243.25 -20.29 243.25 -17.62 L 243.25 -17.62 Q 243.25 -14.9 244.17 -12.52 Q 245.1 -10.13 246.74 -8.35 Q 248.38 -6.58 250.79 -5.56 Z M 256.04 -35.37 L 256.04 -35.37 Q 260.08 -35.37 263.46 -33.99 Q 266.84 -32.6 269.09 -30.21 Q 271.35 -27.83 272.61 -24.58 Q 273.87 -21.33 273.87 -17.62 L 273.87 -17.62 Q 273.87 -14.65 273.08 -11.92 Q 272.29 -9.19 270.75 -6.94 Q 269.2 -4.7 267.06 -3.02 Q 264.93 -1.35 262.1 -0.42 Q 259.27 0.51 256.04 0.51 Q 252.82 0.51 249.99 -0.42 Q 247.16 -1.35 245.02 -3.02 Q 242.89 -4.7 241.36 -6.96 Q 239.82 -9.22 239.03 -11.93 Q 238.25 -14.65 238.25 -17.62 L 238.25 -17.62 Q 238.25 -21.3 239.5 -24.55 Q 240.76 -27.8 243.02 -30.2 Q 245.28 -32.6 248.66 -33.99 Q 252.03 -35.37 256.04 -35.37 Z M 293.6 -30.24 L 293.6 -12.59 Q 293.6 -10.23 294.12 -8.68 Q 294.64 -7.13 295.81 -6.21 Q 296.98 -5.28 298.69 -4.9 Q 300.41 -4.52 303 -4.52 Q 305.59 -4.52 307.3 -4.9 Q 309.01 -5.28 310.18 -6.21 Q 311.35 -7.13 311.87 -8.68 Q 312.39 -10.23 312.39 -12.59 L 312.39 -12.59 L 312.39 -30.24 L 309.27 -30.24 L 309.27 -34.86 L 320.49 -34.86 L 320.49 -30.24 L 317.39 -30.24 L 317.39 -9.12 Q 317.39 -6.32 315.49 -4.11 Q 313.58 -1.9 310.31 -0.7 Q 307.03 0.51 303 0.51 L 303 0.51 Q 298.93 0.51 295.66 -0.7 Q 292.38 -1.9 290.49 -4.11 Q 288.6 -6.32 288.6 -9.12 L 288.6 -9.12 L 288.6 -30.24 L 285.48 -30.24 L 285.48 -34.86 L 296.7 -34.86 L 296.7 -30.24 L 293.6 -30.24 Z M 346.93 -4.44 L 346.93 -4.44 Q 348.07 -4.44 348.77 -4.46 Q 349.47 -4.47 350.3 -4.51 Q 351.14 -4.54 351.64 -4.62 Q 352.13 -4.7 352.7 -4.84 Q 353.28 -4.98 353.58 -5.17 Q 353.88 -5.36 354.23 -5.64 Q 354.57 -5.92 354.73 -6.28 Q 354.9 -6.65 355.05 -7.13 Q 355.2 -7.62 355.26 -8.2 Q 355.31 -8.79 355.31 -9.55 L 355.31 -9.55 Q 355.31 -10.51 355.01 -11.27 Q 354.72 -12.04 354.01 -12.58 Q 353.3 -13.13 352.65 -13.5 Q 352.01 -13.86 350.75 -14.17 Q 349.49 -14.47 348.72 -14.63 Q 347.94 -14.78 346.39 -15.03 L 346.39 -15.03 Q 345.07 -15.26 344.38 -15.37 Q 343.68 -15.49 342.42 -15.77 Q 341.16 -16.05 340.47 -16.3 Q 339.77 -16.55 338.71 -17.01 Q 337.66 -17.47 337.06 -17.95 Q 336.47 -18.43 335.76 -19.17 Q 335.04 -19.91 334.66 -20.76 Q 334.28 -21.61 334.03 -22.72 Q 333.78 -23.84 333.78 -25.16 L 333.78 -25.16 Q 333.78 -27.52 334.78 -29.47 Q 335.78 -31.41 337.53 -32.69 Q 339.28 -33.97 341.65 -34.67 Q 344.01 -35.37 346.75 -35.37 L 346.75 -35.37 Q 349.97 -35.37 353.02 -34.39 Q 356.07 -33.41 358.3 -31.99 L 358.3 -31.99 L 358.61 -31.81 L 358.61 -24.15 L 353.55 -24.15 L 353.55 -29 Q 350.43 -30.34 347.03 -30.34 L 347.03 -30.34 Q 343.22 -30.34 341 -28.96 Q 338.78 -27.57 338.78 -24.86 L 338.78 -24.86 Q 338.78 -24.04 339.04 -23.4 Q 339.31 -22.75 339.98 -22.27 Q 340.66 -21.79 341.24 -21.46 Q 341.82 -21.13 343 -20.81 Q 344.19 -20.49 344.92 -20.33 Q 345.66 -20.16 347.11 -19.88 L 347.11 -19.88 Q 348.48 -19.63 349.19 -19.47 Q 349.9 -19.32 351.21 -18.99 Q 352.51 -18.66 353.25 -18.38 Q 353.99 -18.1 355.09 -17.6 Q 356.19 -17.09 356.83 -16.55 Q 357.46 -16.02 358.21 -15.25 Q 358.96 -14.47 359.36 -13.57 Q 359.75 -12.67 360.03 -11.49 Q 360.31 -10.31 360.31 -8.96 L 360.31 -8.96 Q 360.31 -6.88 359.62 -5.26 Q 358.94 -3.63 357.73 -2.56 Q 356.53 -1.5 354.79 -0.79 Q 353.05 -0.08 351.08 0.23 Q 349.11 0.53 346.78 0.53 L 346.78 0.53 Q 343.37 0.53 339.83 -0.3 Q 336.29 -1.14 333.72 -2.31 L 333.72 -2.31 L 333.37 -2.49 L 333.37 -10.54 L 338.37 -10.54 L 338.37 -5.76 Q 340.35 -5.08 342.28 -4.76 Q 344.21 -4.44 346.93 -4.44 Z M 381.54 -30.34 L 381.54 -19.55 L 390.33 -19.55 L 390.33 -22.7 L 395.58 -22.7 L 395.58 -11.45 L 390.33 -11.45 L 390.33 -14.55 L 381.54 -14.55 L 381.54 -5 L 394.34 -5 L 394.34 -7.49 L 399.34 -7.49 L 399.34 0 L 373.19 0 L 373.19 -5 L 376.31 -5 L 376.31 -30.34 L 373.19 -30.34 L 373.19 -34.84 L 399.34 -34.84 L 399.34 -27.85 L 394.34 -27.85 L 394.34 -30.34 L 381.54 -30.34 Z" stroke-linecap="round" />
</g>
</g>
</g>
</svg>